<svg xmlns="http://www.w3.org/2000/svg" xmlns:xlink="http://www.w3.org/1999/xlink" width="200" height="53" viewBox="0 0 200 53">
  <defs>
    <polygon id="annie-a" points=".005 .041 14.955 .041 14.955 25.176 .005 25.176"/>
    <polygon id="annie-c" points=".093 .026 34.372 .026 34.372 52.894 .093 52.894"/>
  </defs>
  <g fill="none" fill-rule="evenodd">
    <g transform="translate(0 12.507)">
      <path fill="#D4D4D4" d="M8.08748945,7.8672499 C7.99392405,7.8672499 7.92398734,7.96146032 7.87746835,8.14924389 L6.23189873,14.3889052 C6.20848101,14.4831156 6.19698312,14.5652178 6.19698312,14.6357429 L6.19698312,14.7414242 C6.19698312,14.8824743 6.27841772,14.9529994 6.44202532,14.9529994 L9.94308017,14.9529994 C10.0131224,14.9529994 10.0831646,14.923791 10.1532068,14.8648431 C10.2232489,14.8064263 10.2581646,14.7414242 10.2581646,14.6710054 C10.2581646,14.6240595 10.2346414,14.506801 10.1882278,14.3183802 L8.29761603,8.18450641 C8.22757384,7.97303747 8.15753165,7.8672499 8.08748945,7.8672499 Z M15.2998312,20.0997349 C15.5563713,20.9226687 15.7899156,21.5803361 16.0000422,22.0739052 C16.2100633,22.5673681 16.5481435,22.9673641 17.0153376,23.2725124 C17.3419198,23.5076667 17.6394937,23.6425565 17.9080591,23.677819 C18.1762025,23.7130816 18.3106962,23.8365004 18.3106962,24.0480756 C18.3106962,24.3773341 18.065654,24.5415385 17.5754641,24.5415385 C17.2718776,24.5415385 16.8807384,24.506276 16.4026793,24.4357509 C15.9239873,24.3653321 15.3348523,24.3300695 14.6345359,24.3300695 C13.6542616,24.3300695 12.8664979,24.3597028 12.2713502,24.4181196 C11.6762025,24.4771737 11.2614346,24.506276 11.0284177,24.506276 C10.6312658,24.506276 10.43327,24.3653321 10.43327,24.0833381 C10.43327,23.7076647 10.6662869,23.5192439 11.133481,23.5192439 C11.7166034,23.5192439 12.10173,23.4608271 12.2888608,23.3429313 C12.4753586,23.2256727 12.5689241,23.0025204 12.5689241,22.6731557 C12.5689241,22.3680074 12.4638608,21.839282 12.2538397,21.0868731 L10.8884388,16.5744383 C10.8412869,16.3866547 10.6662869,16.2924443 10.3632278,16.2924443 L6.02187764,16.2924443 C5.95183544,16.2924443 5.87578059,16.3221838 5.79434599,16.3806006 C5.712173,16.4395485 5.65974684,16.5161277 5.63675105,16.609807 L4.7964557,19.747322 C4.44635021,21.1341377 4.27135021,22.0386427 4.27135021,22.4616868 C4.27135021,22.8142058 4.34128692,23.0493601 4.48137131,23.1667248 C4.6214557,23.2845144 4.85447257,23.3667228 5.18158228,23.4134563 C5.64824895,23.4839814 5.99835443,23.5666146 6.23189873,23.6601878 C6.4650211,23.7543982 6.5821097,23.9307108 6.5821097,24.1890194 C6.5821097,24.4710134 6.38348101,24.6120635 5.98685654,24.6120635 C5.72968354,24.6120635 5.34466245,24.576801 4.83147679,24.506276 C4.3178692,24.4357509 3.68759494,24.4004884 2.94086498,24.4004884 C2.42725738,24.4004884 1.97810127,24.4302279 1.59297468,24.4886447 C1.2078481,24.5470615 0.887278481,24.576801 0.63021097,24.576801 C0.210063291,24.576801 4.21940928e-05,24.42428 4.21940928e-05,24.1184944 C4.21940928e-05,23.9307108 0.0584810127,23.807292 0.175042194,23.7483441 C0.292130802,23.6900335 0.437594937,23.6487168 0.612700422,23.6249253 C0.787700422,23.6018772 0.974831224,23.5781918 1.172827,23.5545064 C1.37092827,23.5313521 1.56343882,23.4487188 1.75056962,23.3076687 C2.07704641,23.0730455 2.32219409,22.7381577 2.48580169,22.3030054 C2.64877637,21.8683842 2.82388186,21.3336046 3.01090717,20.6990916 L8.57767932,2.50893928 C8.67061181,2.25052445 8.74677215,2.04510962 8.80521097,1.8919513 C8.86322785,1.73943026 8.98580169,1.6628511 9.172827,1.6628511 C9.42947257,1.6628511 9.59297468,1.81590321 9.66301688,2.1210515 C9.73305907,2.42683707 9.84951477,2.82619579 10.0131224,3.31976493 L15.2998312,20.0997349 Z"/>
      <path fill="#D4D4D4" d="M22.7138819 10.4759439C22.7138819 10.7816232 22.7483755 10.9341443 22.8183122 10.9341443 22.8883544 10.9341443 22.9813924 10.8637255 23.0979536 10.7226754L23.4819198 10.2643687C23.9704219 9.65354108 24.5344515 9.18365731 25.1745359 8.85429259 25.8145148 8.52545892 26.4836076 8.36072345 27.1821308 8.36072345 28.6247468 8.36072345 29.7472152 8.86045291 30.5503797 9.85895591 31.3533333 10.8582024 31.7549156 12.3327495 31.7549156 14.2831283L31.7549156 21.8624469C31.7549156 22.5911703 31.9300211 23.0730561 32.2801266 23.3076794 32.4431013 23.401996 32.6127215 23.4608377 32.7877215 23.483992 32.962827 23.5076774 33.1203165 23.5312565 33.2604008 23.554517 33.4004852 23.5782024 33.5109283 23.6249359 33.5929958 23.6954609 33.6745359 23.765986 33.7154641 23.8954589 33.7154641 24.0833487 33.7154641 24.4595531 33.505443 24.6472305 33.0852954 24.6472305 32.7581857 24.6472305 32.3627215 24.60602 31.89827 24.5239178 31.4332911 24.4419218 30.9015401 24.400499 30.301962 24.400499 29.702384 24.400499 29.187616 24.4419218 28.7581857 24.5239178 28.3282278 24.60602 27.9966878 24.6472305 27.7636709 24.6472305 27.3900422 24.6472305 27.2035443 24.4478697 27.2035443 24.0480862 27.2035443 23.8838818 27.2324473 23.765986 27.2909916 23.6954609 27.3490084 23.6249359 27.4310759 23.5782024 27.5360338 23.554517 27.641097 23.5312565 27.7576582 23.5137315 27.8862447 23.5016232 28.0141983 23.4900461 28.1487975 23.4487295 28.2888819 23.3782044 28.5689451 23.2372605 28.7319198 23.0554248 28.7789662 22.8318477 28.8254852 22.6086954 28.8490084 22.2853848 28.8490084 21.8624469L28.8490084 14.7414349C28.8490084 13.3313587 28.5907806 12.2682786 28.0743249 11.5511323 27.5579747 10.834517 26.8184177 10.4759439 25.8555485 10.4759439 24.9633544 10.4759439 24.2357173 10.7816232 23.6723207 11.3924509 23.1088186 12.0039158 22.8270675 12.9435772 22.8270675 14.2126032L22.8270675 21.8624469C22.8270675 22.2622305 22.8560759 22.5735391 22.9146203 22.7965852 22.9726371 23.0201623 23.1186287 23.1904208 23.3522785 23.3076794 23.5622996 23.4255752 23.748903 23.4900461 23.9124051 23.5016232 24.0754852 23.5137315 24.2214768 23.5312565 24.3500633 23.554517 24.4781224 23.5782024 24.5775949 23.6249359 24.6477426 23.6954609 24.7176793 23.765986 24.7527004 23.9070361 24.7527004 24.118505 24.7527004 24.471024 24.5426793 24.6472305 24.1225316 24.6472305 23.7953165 24.6472305 23.3998523 24.60602 22.9354008 24.5239178 22.4709494 24.4419218 21.9508017 24.400499 21.3741139 24.400499 20.7746414 24.400499 20.2657806 24.4419218 19.8479536 24.5239178 19.4299156 24.60602 19.0923629 24.6472305 18.8358228 24.6472305 18.4621941 24.6472305 18.2756962 24.4478697 18.2756962 24.0480862 18.2756962 23.8838818 18.3047046 23.765986 18.3632489 23.6954609 18.4211603 23.6249359 18.4972152 23.5782024 18.5907806 23.554517 18.6837131 23.5312565 18.794789 23.5137315 18.9233755 23.5016232 19.0514346 23.4900461 19.1859283 23.4487295 19.3260127 23.3782044 19.5825527 23.2609459 19.7461603 23.0962104 19.8162025 22.8847415 19.8861392 22.6731663 19.9211603 22.3327555 19.9211603 21.8624469L19.9211603 13.5428277C19.9211603 12.9083146 19.845211 12.4852705 19.6936287 12.2738016 19.541519 12.0623327 19.3725316 11.9333908 19.1859283 11.88602 18.998903 11.8391804 18.8298101 11.8100782 18.6783333 11.7978637 18.5262236 11.7862866 18.4506962 11.6629739 18.4506962 11.4277134 18.4506962 11.1930902 18.6022785 10.9870381 18.905865 10.8108317 19.2089241 10.6346253 19.6520675 10.3701563 20.2351899 10.0176373 20.9102954 9.61827856 21.3872996 9.23049699 21.666308 8.85429259 21.945211 8.47861924 22.1898312 8.29030461 22.3998523 8.29030461 22.4693671 8.29030461 22.5387764 8.34925251 22.6088186 8.46661723 22.6788608 8.58440681 22.7138819 8.77219038 22.7138819 9.03060521L22.7138819 10.4759439zM39.3790612 10.4759439C39.3790612 10.7816232 39.4135549 10.9341443 39.4834916 10.9341443 39.5535338 10.9341443 39.6465717 10.8637255 39.7631329 10.7226754L40.1470992 10.2643687C40.6356013 9.65354108 41.1996308 9.18365731 41.8397152 8.85429259 42.4796941 8.52545892 43.1487869 8.36072345 43.8473101 8.36072345 45.2899262 8.36072345 46.4123945 8.86045291 47.2155591 9.85895591 48.0185127 10.8582024 48.4200949 12.3327495 48.4200949 14.2831283L48.4200949 21.8624469C48.4200949 22.5911703 48.5952004 23.0730561 48.9453059 23.3076794 49.1082806 23.401996 49.2779008 23.4608377 49.4529008 23.483992 49.6280063 23.5076774 49.7854958 23.5312565 49.9255802 23.554517 50.0656646 23.5782024 50.1761076 23.6249359 50.2581751 23.6954609 50.3397152 23.765986 50.3806435 23.8954589 50.3806435 24.0833487 50.3806435 24.4595531 50.1706224 24.6472305 49.7504747 24.6472305 49.423365 24.6472305 49.0279008 24.60602 48.5634494 24.5239178 48.0984705 24.4419218 47.5667194 24.400499 46.9671414 24.400499 46.3675633 24.400499 45.8527954 24.4419218 45.423365 24.5239178 44.9934072 24.60602 44.6618671 24.6472305 44.4288502 24.6472305 44.0552215 24.6472305 43.8687236 24.4478697 43.8687236 24.0480862 43.8687236 23.8838818 43.8976266 23.765986 43.9561709 23.6954609 44.0141878 23.6249359 44.0962553 23.5782024 44.2012131 23.554517 44.3062764 23.5312565 44.4228376 23.5137315 44.5514241 23.5016232 44.6793776 23.4900461 44.8139768 23.4487295 44.9540612 23.3782044 45.2341245 23.2372605 45.3970992 23.0554248 45.4441456 22.8318477 45.4906646 22.6086954 45.5141878 22.2853848 45.5141878 21.8624469L45.5141878 14.7414349C45.5141878 13.3313587 45.2559599 12.2682786 44.7395042 11.5511323 44.223154 10.834517 43.483597 10.4759439 42.5207278 10.4759439 41.6285338 10.4759439 40.9008966 10.7816232 40.3375 11.3924509 39.7739979 12.0039158 39.4922468 12.9435772 39.4922468 14.2126032L39.4922468 21.8624469C39.4922468 22.2622305 39.5212553 22.5735391 39.5797996 22.7965852 39.6378165 23.0201623 39.783808 23.1904208 40.0174578 23.3076794 40.2274789 23.4255752 40.4140823 23.4900461 40.5775844 23.5016232 40.7406646 23.5137315 40.8866561 23.5312565 41.0152426 23.554517 41.1433017 23.5782024 41.2427743 23.6249359 41.3129219 23.6954609 41.3828586 23.765986 41.4178797 23.9070361 41.4178797 24.118505 41.4178797 24.471024 41.2078586 24.6472305 40.787711 24.6472305 40.4604958 24.6472305 40.0650316 24.60602 39.6005802 24.5239178 39.1361287 24.4419218 38.615981 24.400499 38.0392932 24.400499 37.4398207 24.400499 36.9309599 24.4419218 36.5131329 24.5239178 36.0950949 24.60602 35.7575422 24.6472305 35.5010021 24.6472305 35.1273734 24.6472305 34.9408755 24.4478697 34.9408755 24.0480862 34.9408755 23.8838818 34.969884 23.765986 35.0284283 23.6954609 35.0863397 23.6249359 35.1623945 23.5782024 35.2559599 23.554517 35.3488924 23.5312565 35.4599684 23.5137315 35.5885549 23.5016232 35.7166139 23.4900461 35.8511076 23.4487295 35.991192 23.3782044 36.2477321 23.2609459 36.4113397 23.0962104 36.4813819 22.8847415 36.5513186 22.6731663 36.5863397 22.3327555 36.5863397 21.8624469L36.5863397 13.5428277C36.5863397 12.9083146 36.5103903 12.4852705 36.358808 12.2738016 36.2066983 12.0623327 36.037711 11.9333908 35.8511076 11.88602 35.6640823 11.8391804 35.4949895 11.8100782 35.3435127 11.7978637 35.191403 11.7862866 35.1158755 11.6629739 35.1158755 11.4277134 35.1158755 11.1930902 35.2674578 10.9870381 35.5710443 10.8108317 35.8741034 10.6346253 36.3172468 10.3701563 36.9003692 10.0176373 37.5754747 9.61827856 38.0524789 9.23049699 38.3314873 8.85429259 38.6103903 8.47861924 38.8550105 8.29030461 39.0650316 8.29030461 39.1345464 8.29030461 39.2039557 8.34925251 39.2739979 8.46661723 39.3440401 8.58440681 39.3790612 8.77219038 39.3790612 9.03060521L39.3790612 10.4759439zM55.8423734 2.82615331C56.1454325 3.22604309 56.2974367 3.67224148 56.2974367 4.16570441 56.2974367 4.65927355 56.1454325 5.10600301 55.8423734 5.50536172 55.5387869 5.9052515 55.1771835 6.10461222 54.7570359 6.10461222 54.3368882 6.10461222 53.9747574 5.9052515 53.6716983 5.50536172 53.3680063 5.10600301 53.2165295 4.65927355 53.2165295 4.16570441 53.2165295 3.67224148 53.3680063 3.22604309 53.6716983 2.82615331 53.9747574 2.42679459 54.3368882 2.22690281 54.7570359 2.22690281 55.1771835 2.22690281 55.5387869 2.42679459 55.8423734 2.82615331zM56.0523945 21.8623938C56.0523945 22.2853317 56.0929008 22.6026944 56.1749684 22.8141633 56.2565084 23.0256323 56.4026055 23.1903677 56.6126266 23.3076263 56.7991245 23.4019429 56.9802426 23.4608908 57.1552426 23.4840451 57.3303481 23.5076242 57.4818249 23.5369389 57.6104114 23.5720952 57.7384705 23.6073577 57.8434283 23.6602515 57.9254958 23.7307766 58.0070359 23.8013016 58.0480696 23.9190912 58.0480696 24.0832956 58.0480696 24.4595 57.837943 24.6472836 57.4179008 24.6472836 57.0677954 24.6472836 56.6487025 24.6059669 56.1612553 24.5239709 55.6732806 24.4418687 55.1530274 24.4005521 54.5994409 24.4005521 53.9998629 24.4005521 53.4911076 24.4418687 53.0732806 24.5239709 52.6552426 24.6059669 52.3176899 24.6472836 52.0611498 24.6472836 51.7110443 24.6472836 51.5360443 24.4479228 51.5360443 24.0480331 51.5360443 23.8838287 51.5650527 23.7660391 51.6234916 23.695514 51.6815084 23.624989 51.7635759 23.5781493 51.8686392 23.5545701 51.973597 23.5313096 52.0841456 23.5137846 52.2012342 23.5016764 52.3176899 23.489993 52.4462764 23.4487826 52.5863608 23.3782575 52.8429008 23.2372074 53.0004958 23.0670551 53.0589346 22.8670571 53.1169515 22.6676964 53.1464873 22.3328086 53.1464873 21.8623938L53.1464873 13.5428808C53.1464873 12.9083677 53.0704325 12.4853236 52.9189557 12.2737485 52.766846 12.0622796 52.6038713 11.9272836 52.4287658 11.8683357 52.2536603 11.8100251 52.0901582 11.7747625 51.9386814 11.7626543 51.7865717 11.7510772 51.7110443 11.6276583 51.7110443 11.392504 51.7110443 11.1341954 51.8686392 10.9226202 52.1837236 10.757991 52.498808 10.5937866 52.9462764 10.3470551 53.527289 10.0175842 53.8729641 9.80611523 54.1667405 9.59464629 54.4091456 9.38307114 54.6509177 9.1716022 54.852711 8.98381864 55.0146308 8.81908317 55.1760232 8.65487876 55.3084072 8.51945792 55.4124156 8.41367034 55.5163186 8.30788277 55.6142089 8.25498898 55.7067194 8.25498898 55.9369937 8.25498898 56.0523945 8.50182665 56.0523945 8.99528958L56.0523945 21.8623938zM67.8333861 13.0845741C68.358597 12.8262655 68.6211498 12.309011 68.6211498 11.5334479 68.6211498 10.9463056 68.3814873 10.4053657 67.9034283 9.91190281 67.4247363 9.41833367 66.8120781 9.1716022 66.0653481 9.1716022 65.2480485 9.1716022 64.5363397 9.48885872 63.9296941 10.1233717 63.3224156 10.757991 62.9258966 11.5572395 62.7392932 12.5205862L62.63423 13.0845741 62.63423 13.1550992C62.63423 13.3665681 62.7743143 13.4723557 63.0543776 13.4723557L65.330116 13.4723557C66.473365 13.4723557 67.3081751 13.34352 67.8333861 13.0845741zM62.7743143 14.5651754C62.5871835 14.5651754 62.4707278 14.6004379 62.4242089 14.6709629 62.3771624 14.7413818 62.3541667 14.8946463 62.3541667 15.1291633L62.3541667 15.9752515C62.3541667 18.1607846 62.8148207 19.8882234 63.7370781 21.1572495 64.6589135 22.426488 65.855327 23.0608948 67.3257911 23.0608948 67.9788502 23.0608948 68.5450949 22.9552134 69.0237869 22.7437445 69.501846 22.5321693 69.8991034 22.2975461 70.2140823 22.0386002 70.5292722 21.7803978 70.7743143 21.5451373 70.9494198 21.3336683 71.1244198 21.1220932 71.2469937 21.0163056 71.3169304 21.0163056 71.5035338 21.0163056 71.5970992 21.1457786 71.5970992 21.4040872 71.5970992 21.6629269 71.4570148 22.0033377 71.1769515 22.426488 70.8968882 22.8494259 70.4942511 23.2669469 69.9690401 23.6778828 69.4439346 24.0893497 68.8191456 24.4479228 68.0959388 24.7530711 67.3722046 25.0582194 66.555538 25.2112715 65.6452004 25.2112715 64.6879219 25.2112715 63.8186181 25.0174339 63.0368671 24.6297585 62.2545886 24.2418707 61.5839135 23.6838307 61.0237869 22.9552134 60.4635549 22.227021 60.0313819 21.3457766 59.7283228 20.3113737 59.4247363 19.2773958 59.2732595 18.1140511 59.2732595 16.8212335 59.2732595 15.5290531 59.4422468 14.3596543 59.7808544 13.3137806 60.1189346 12.2682255 60.5916139 11.3809269 61.1987869 10.6522034 61.8054325 9.92401102 62.5232595 9.36002305 63.3519515 8.96002705 64.1802215 8.56077455 65.0849684 8.36077655 66.0653481 8.36077655 66.9056435 8.36077655 67.6757911 8.50788076 68.3761076 8.8014519 69.0763186 9.09555411 69.6714662 9.48885872 70.1616561 9.98232164 70.6517405 10.4758908 71.0308544 11.0520932 71.2994198 11.7097605 71.5674578 12.3679589 71.702057 13.072997 71.702057 13.8248747 71.702057 14.1306603 71.608597 14.3305521 71.4219937 14.4242315 71.2349684 14.5184419 70.9319093 14.5651754 70.5117616 14.5651754L62.7743143 14.5651754zM120.711878 6.52766693C120.711878 7.11534028 120.583291 7.40891142 120.326751 7.40891142 120.163143 7.40891142 120.040675 7.32691543 119.95903 7.16217996 119.877068 6.99808176 119.789515 6.78661283 119.696477 6.52766693 119.602911 6.26935832 119.47443 5.98120401 119.311456 5.66394749 119.147848 5.34669098 118.914198 5.04706573 118.611139 4.76507174 117.653861 3.87214389 116.230443 3.42541443 114.339831 3.42541443 113.872637 3.42541443 113.511034 3.46078317 113.254494 3.531202 112.997321 3.60172705 112.80481 3.71962285 112.676857 3.88372104 112.54827 4.04845651 112.46673 4.26597956 112.431709 4.53597154 112.396793 4.80628216 112.379283 5.15285331 112.379283 5.57589739L112.379283 11.3925146C112.379283 11.698194 112.402278 11.8920317 112.449219 11.9741339 112.495738 12.0567671 112.682342 12.0975527 113.009346 12.0975527L114.584873 12.0975527C115.30808 12.0975527 115.938354 12.0330818 116.475485 11.9036088 117.012194 11.7747731 117.3623 11.6276689 117.525907 11.4629335 117.758924 11.2283102 117.922532 10.9871018 118.015992 10.7403703 118.108924 10.4935327 118.178966 10.2644325 118.226118 10.0528573 118.272532 9.84138838 118.325063 9.66518196 118.383608 9.52413186 118.441624 9.38308176 118.564198 9.31255671 118.751224 9.31255671 119.031287 9.31255671 119.171371 9.47729218 119.171371 9.80612585 119.171371 10.2528553 119.141835 10.7700036 119.083819 11.3572521 119.025274 11.9449255 118.996266 12.5910156 118.996266 13.2961599 118.996266 14.1190938 119.013776 14.7828152 119.048797 15.2878553 119.083819 15.7934265 119.101329 16.1284204 119.101329 16.2925186 119.101329 16.7155627 118.961245 16.9270317 118.681181 16.9270317 118.541203 16.9270317 118.430127 16.8626669 118.348586 16.733194 118.266519 16.6042521 118.196477 16.4280457 118.13846 16.2043623 118.080021 15.9813162 118.003966 15.7229014 117.910928 15.4289054 117.817468 15.1352281 117.677384 14.8119174 117.490886 14.4593984 117.210823 13.9190958 116.837194 13.5902621 116.370527 13.4723663 115.903333 13.3550016 115.296582 13.2961599 114.549958 13.2961599L113.009346 13.2961599C112.752278 13.2961599 112.583186 13.3380076 112.501751 13.4205347 112.419789 13.5031679 112.379283 13.6750196 112.379283 13.9350277L112.379283 21.2476469C112.379283 21.7445086 112.414304 22.1411058 112.484241 22.4369074 112.554283 22.7326028 112.682342 22.9573483 112.869367 23.1111439 113.05597 23.2653643 113.312511 23.3715768 113.63962 23.4306309 113.966203 23.4900036 114.38635 23.5193182 114.899958 23.5193182 115.436667 23.5193182 115.920844 23.4961639 116.353017 23.448687 116.784662 23.4019535 117.175802 23.3076369 117.525907 23.166693 117.875907 23.0256429 118.191097 22.8202281 118.47116 22.5498112 118.751224 22.2799255 119.031287 21.9329295 119.311456 21.5098854 119.731498 20.8521118 120.046582 20.2820697 120.256709 19.8000778 120.466835 19.318723 120.711878 19.0774084 120.991941 19.0774084 121.061878 19.0774084 121.137405 19.1187251 121.219473 19.2008273 121.301013 19.2834605 121.342046 19.3479315 121.342046 19.3947711 121.318523 19.6298192 121.295 19.8415006 121.27211 20.0292842L120.886878 23.448687C120.86346 23.7152802 120.839831 23.9196329 120.816835 24.0623824 120.793312 24.2050257 120.746899 24.3205848 120.676857 24.4088473 120.606814 24.4974285 120.507342 24.5530838 120.379283 24.5768754 120.250696 24.5999234 120.058186 24.6121379 119.80154 24.6121379 119.077806 24.6121379 117.974958 24.5668914 116.492996 24.4771419 115.010506 24.3868613 113.137405 24.3416148 110.873692 24.3416148 109.823376 24.3416148 109.023586 24.3691238 108.475485 24.4242481 107.926857 24.4793723 107.582764 24.5063503 107.442679 24.5063503 106.929072 24.5063503 106.672426 24.3184605 106.672426 23.9422561 106.672426 23.6371078 106.812405 23.4840557 107.092574 23.4840557 107.372637 23.4840557 107.734346 23.448687 108.177911 23.3781619 108.691097 23.3076369 108.994684 23.0961679 109.088249 22.7437551 109.181181 22.3911299 109.228228 21.8745126 109.228228 21.1925226L109.228228 5.04706573C109.228228 4.50676313 109.198692 4.13055872 109.140781 3.91898357 109.082131 3.70751463 108.88962 3.54331022 108.563038 3.42541443 108.376013 3.35488938 108.189409 3.31973307 108.002911 3.31973307 107.815781 3.31973307 107.6527 3.30815591 107.512722 3.28447054 107.372637 3.26131623 107.261561 3.2199996 107.180127 3.1610517 107.097954 3.10263487 107.057553 2.97932224 107.057553 2.7909014 107.057553 2.46206774 107.255654 2.29733226 107.6527 2.29733226 107.792785 2.29733226 108.294367 2.32112385 109.158291 2.36785731 110.021477 2.41522806 111.258924 2.43838236 112.869367 2.43838236 114.922954 2.43838236 116.522004 2.41522806 117.665886 2.36785731 118.809241 2.32112385 119.497954 2.29733226 119.731498 2.29733226 120.198165 2.29733226 120.478228 2.37996553 120.571793 2.54416994 120.664831 2.7087992 120.711878 2.97932224 120.711878 3.35488938L120.711878 3.49593948 120.711878 6.52766693zM133.403175 12.4401409C133.368154 11.7923513 133.263091 11.2387721 133.088091 10.7794034 132.913091 10.3200347 132.650432 9.96634729 132.300327 9.71908477 131.950222 9.47182224 131.460032 9.34787234 130.829757 9.34787234 130.22269 9.34787234 129.656973 9.52460982 129.131867 9.87829719 128.606656 10.2318784 128.139462 10.7325637 127.73134 11.3803533 127.32269 12.0281429 127.001593 12.8234615 126.768576 13.7654595 126.535032 14.7077762 126.41847 15.7559866 126.41847 16.9105156 126.41847 19.0075737 126.861508 20.6389966 127.74885 21.8049966 128.635665 22.9717401 129.849589 23.5545277 131.389989 23.5545277 131.880179 23.5545277 132.265306 23.4900567 132.545369 23.3600527 132.825432 23.2305798 133.035559 23.0361048 133.175643 22.7772651 133.315622 22.5184255 133.397057 22.2121088 133.420686 21.8585277 133.443681 21.5048403 133.455707 21.0928423 133.455707 20.6213653L133.455707 14.6488283C133.455707 13.8243012 133.438196 13.0879305 133.403175 12.4401409zM136.361614 21.3336259C136.361614 22.2738182 136.524589 22.743702 136.851698 22.743702 137.084715 22.743702 137.289357 22.6323914 137.464462 22.4088142 137.639462 22.1856619 137.785032 22.0739265 137.902015 22.0739265 137.948534 22.0739265 138.007184 22.1268202 138.07712 22.2325016 138.147162 22.3382892 138.182184 22.4853934 138.182184 22.673177 138.182184 23.0730667 138.100011 23.3253212 137.937036 23.4311088 137.773534 23.5368964 137.563407 23.6370547 137.306867 23.7307341 136.445897 24.0364134 135.767521 24.3420928 135.271846 24.6472411 134.775749 24.9523894 134.435454 25.1056539 134.251065 25.1056539 134.135559 25.1056539 134.037774 25.0290747 133.957289 24.8764475 133.876276 24.7232892 133.81288 24.5470828 133.766888 24.347722 133.721002 24.1482551 133.674483 23.9720487 133.628597 23.8188904 133.582605 23.6663693 133.524589 23.589684 133.455707 23.589684 133.40866 23.589684 133.292099 23.6723172 133.105601 23.8364154 132.91847 24.0011509 132.667943 24.1835176 132.352859 24.3828784 132.037774 24.5823453 131.658027 24.764712 131.214989 24.9292351 130.771319 25.0934395 130.257711 25.176179 129.674483 25.176179 128.787141 25.176179 127.958977 24.9821289 127.188724 24.5944535 126.41847 24.2066719 125.735665 23.660209 125.140622 22.9551709 124.545369 22.2501329 124.078281 21.3985216 123.7402 20.3993814 123.401593 19.4007721 123.2325 18.2787441 123.2325 17.0328723 123.2325 15.7637401 123.425011 14.5949786 123.810137 13.525207 124.195264 12.4560727 124.708344 11.5395657 125.350643 10.7755798 125.99231 10.0121248 126.745053 9.41839739 127.608766 8.99535331 128.472057 8.57230922 129.39442 8.36073407 130.374694 8.36073407 130.841361 8.36073407 131.285032 8.4020507 131.705074 8.48415291 132.125327 8.56678617 132.463302 8.65494248 132.720369 8.74851563L133.175643 8.92482826 133.24558 8.92482826C133.385665 8.92482826 133.455707 8.74851563 133.455707 8.39599659L133.455707 3.74272405C133.455707 3.43757575 133.373639 3.21389238 133.210559 3.0729485 133.047057 2.9318984 132.871951 2.82069399 132.685348 2.73806072 132.498323 2.65595852 132.323323 2.57937936 132.160243 2.50896052 131.996741 2.43843547 131.9152 2.3326479 131.9152 2.1915978 131.9152 1.93328918 132.072795 1.76313687 132.38788 1.68050361 132.702859 1.5984014 133.081445 1.47498257 133.524589 1.31024709 134.332078 1.0050988 134.925643.717050701 135.30634.446633868 135.687036.176748096 135.934926.0412210421 136.050327.0412210421 136.234715.0412210421 136.350116.100168938 136.396635.217533667 136.443049.335323246 136.466572.499527655 136.466572.710996593 136.466572 1.04036132 136.449061 1.40456373 136.414146 1.80381623 136.379124 2.20381222 136.361614 2.63832725 136.361614 3.10821102L136.361614 21.3336259zM148.59769 14.7413924C148.702753 14.4362441 148.755285 14.1190938 148.755285 13.7896228 148.755285 13.6960497 148.720264 13.5252601 148.650222 13.2785287 148.580179 13.031691 148.492732 12.7618052 148.387669 12.467703 148.282711 12.1741319 148.165517 11.8859776 148.037458 11.6039836 147.908977 11.3219896 147.774905 11.0873663 147.634926 10.8989455 147.167732 10.2881178 146.432605 9.98233226 145.42923 9.98233226 144.798956 9.98233226 144.302859 10.0881198 143.941255 10.299695 143.579124 10.5111639 143.398639 10.7931579 143.398639 11.145677 143.398639 11.5456729 143.468576 11.9334545 143.60866 12.3090216L146.374589 19.8882341C146.444525 20.0529695 146.514568 20.1349655 146.58461 20.1349655 146.654652 20.1349655 146.724589 20.0292842 146.794631 19.817709L148.2652 15.7284244C148.381656 15.3760116 148.492732 15.047178 148.59769 14.7413924zM154.11193 19.7940236C154.181973 19.9581218 154.274905 20.0403303 154.392099 20.0403303 154.485137 20.0403303 154.578597 19.9113884 154.672162 19.6530798L156.772795 13.1105006C156.959399 12.5949455 157.081867 12.1613864 157.140411 11.8095046 157.198323 11.4580477 157.227859 11.1997391 157.227859 11.0355347 157.227859 10.6840778 157.116888 10.4434004 156.895264 10.3145647 156.673217 10.1856228 156.434188 10.0914124 156.177542 10.0329956 155.920475 9.97468497 155.681445 9.92179118 155.459926 9.8749515 155.237774 9.82821804 155.127226 9.69927615 155.127226 9.48780721 155.127226 9.3004485 155.15634 9.17713587 155.214778 9.11871904 155.272795 9.0603022 155.383871 9.03056273 155.547373 9.03056273 155.803914 9.03056273 156.136614 9.0542481 156.545264 9.10108778 156.953281 9.14792745 157.449483 9.17108176 158.033133 9.17108176 158.733449 9.17108176 159.293576 9.14792745 159.713724 9.10108778 160.133766 9.0542481 160.413935 9.03056273 160.554019 9.03056273 160.740517 9.03056273 160.857078 9.0542481 160.904124 9.10108778 160.950538 9.14792745 160.974061 9.26518597 160.974061 9.45254469 160.974061 9.78074108 160.869103 9.94494549 160.658977 9.94494549 160.448956 9.94494549 160.18039 10.0038934 159.853703 10.1206208 159.480074 10.2385166 159.165095 10.5199796 158.908449 10.9650096 158.651382 11.410677 158.359821 12.0672822 158.033133 12.9348253L154.041888 24.1554244C153.854863 24.6709796 153.633238 24.9292882 153.376804 24.9292882 153.166572 24.9292882 153.032078 24.8588693 152.974061 24.7178192 152.915622 24.5768754 152.839568 24.3774084 152.74653 24.1184625L149.490517 15.552218 146.164462 24.1537251C146.070897 24.4126709 145.983449 24.6059776 145.901804 24.7354505 145.819842 24.8643924 145.685876 24.9292882 145.499272 24.9292882 145.312247 24.9292882 145.184188 24.8588693 145.114146 24.7184565 145.044103 24.5773002 144.962036 24.3784705 144.868998 24.1201619L140.282605 11.4927792C140.118998 11.0707972 139.926487 10.7601259 139.704863 10.5607651 139.482816 10.3614044 139.26731 10.2093082 139.057289 10.1035206 138.847162 9.99783928 138.666677 9.91021403 138.514568 9.83979519 138.363091 9.76927014 138.287036 9.64032826 138.287036 9.45254469 138.287036 9.26518597 138.310559 9.14792745 138.356973 9.10108778 138.404019 9.0542481 138.52058 9.03056273 138.707078 9.03056273 138.940095 9.03056273 139.453808 9.0603022 140.247584 9.11871904 141.040833 9.17713587 142.138196 9.20623808 143.538618 9.20623808L149.665517 9.20623808C150.458871 9.20623808 151.095053 9.17161283 151.573639 9.10108778 152.051804 9.03056273 152.384293 8.9953002 152.57153 8.9953002 152.968154 8.9953002 153.166572 9.1363503 153.166572 9.41728216 153.166572 9.60506573 153.055601 9.7339014 152.834082 9.80453267 152.612036 9.8749515 152.372901 9.93336834 152.116255 9.98020802 151.859188 10.0275788 151.620158 10.0981038 151.398639 10.191677 151.176487 10.2853563 151.065939 10.4610317 151.065939 10.7188092 151.065939 10.906699 151.106445 11.1821078 151.188618 11.5456729 151.270053 11.9091319 151.404019 12.3487451 151.59115 12.8643002L154.11193 19.7940236zM167.730992 16.5744914C167.661055 16.5744914 167.543966 16.6218621 167.380992 16.7155415L166.225612 17.2796357C164.84808 17.9845675 164.159895 19.1601267 164.159895 20.8048261 164.159895 21.4867098 164.282468 22.0033271 164.527511 22.3559523 164.772553 22.7084713 165.093122 22.8846778 165.49038 22.8846778 165.770443 22.8846778 166.050506 22.8086297 166.330675 22.6555776 166.610738 22.5029503 166.867278 22.2914814 167.100823 22.0209583 167.33384 21.7510725 167.526456 21.4277619 167.678565 21.0515575 167.830042 20.6758842 167.906097 20.2529463 167.906097 19.7824253L167.906097 16.9975355C167.906097 16.7155415 167.847553 16.5744914 167.730992 16.5744914zM170.812004 20.5580946C170.812004 21.3105034 170.858418 21.8744914 170.951983 22.2501647 171.045021 22.6263691 171.290063 22.8141527 171.687321 22.8141527 171.943861 22.8141527 172.177405 22.6968942 172.387532 22.4617399 172.597553 22.2270104 172.807679 22.1091146 173.0177 22.1091146 173.297764 22.1091146 173.437848 22.2854273 173.437848 22.6379463 173.437848 22.8262609 173.332785 23.0554673 173.122658 23.3253531 172.912637 23.5957699 172.661582 23.8602389 172.370021 24.1184413 172.077827 24.3773872 171.762848 24.6000084 171.424768 24.788323 171.08616 24.9762128 170.776456 25.070317 170.495865 25.070317 169.886477 25.070317 169.383101 24.870319 168.984895 24.4710665 168.586582 24.0717078 168.258418 23.4723511 168.00135 22.6732088L167.790169 22.6732088 167.052089 23.3077218C166.4427 23.8249764 165.868966 24.2655455 165.33057 24.6297479 164.791751 24.9938441 164.194388 25.1761046 163.538481 25.1761046 162.789008 25.1761046 162.185633 24.9232128 161.728882 24.4181727 161.272131 23.9131327 161.043861 23.2141487 161.043861 22.3206898 161.043861 21.5451267 161.172447 20.8637739 161.430253 20.2761006 161.687848 19.6888521 162.062532 19.1539663 162.554937 18.6720806 163.046709 18.1906196 163.638059 17.7378361 164.328987 17.3148982 165.019916 16.8917479 165.787321 16.46881 166.630886 16.0456597L167.508945 15.5874593C167.696076 15.49378 167.807679 15.3936216 167.8427 15.2878341 167.877722 15.1820465 167.895759 15.000317 167.895759 14.7413711L167.895759 12.2385816C167.895759 11.2514433 167.819072 10.5348281 167.667068 10.0882048 167.514958 9.64200641 167.134262 9.41842926 166.525295 9.41842926 165.915907 9.41842926 165.435633 9.62437515 165.084367 10.035311 164.733207 10.446778 164.393439 11.0283972 164.065802 11.7802749 163.807679 12.3680545 163.52097 12.8675715 163.204831 13.2785074 162.888586 13.6899743 162.378776 13.8953892 161.67635 13.8953892 161.488692 13.8953892 161.33057 13.8370786 161.201983 13.7191828 161.072975 13.601818 161.00884 13.4491908 161.00884 13.2608762 161.00884 12.7441527 161.166962 12.1917419 161.483207 11.6039623 161.799451 11.01682 162.244072 10.4820405 162.818017 10.0000485 163.391857 9.51858758 164.071287 9.1186978 164.856308 8.80144128 165.640802 8.48418477 166.490274 8.32550341 167.403882 8.32550341 168.153354 8.32550341 168.756203 8.41365972 169.213059 8.58997234 169.66981 8.76617876 170.015485 9.02501844 170.249662 9.36542926 170.48384 9.70637114 170.636371 10.1294152 170.706414 10.6345615 170.776456 11.1402389 170.812004 11.7218581 170.812004 12.3795255L170.812004 20.5580946zM178.585369 10.3701457C178.585369 10.5817208 178.619863 10.6874022 178.689272 10.6874022 178.735897 10.6874022 178.840854 10.6054062 179.004462 10.4406707L179.704673 9.66510762C180.451297 8.77228597 181.245179 8.32555651 182.085475 8.32555651 182.715538 8.32555651 183.252247 8.56071082 183.695918 9.03059459 184.138956 9.50100942 184.361108 10.0881517 184.361108 10.7931898 184.361108 11.3104443 184.203618 11.7333822 183.888428 12.062322 183.573344 12.3916868 183.193808 12.555785 182.750559 12.555785 182.400559 12.555785 182.096867 12.4677349 181.840327 12.2914222 181.583259 12.1152158 181.350137 11.9212719 181.140116 11.709803 180.930095 11.4982279 180.731466 11.3043902 180.544863 11.1280776 180.357838 10.9518711 180.171234 10.8637148 179.984736 10.8637148 179.120918 10.8637148 178.689272 11.9686427 178.689272 14.1774363L178.689272 21.8271737C178.689272 22.2269573 178.735897 22.5266888 178.829357 22.7261557 178.922395 22.9259413 179.109525 23.0846226 179.389589 23.2019874 179.669652 23.3429313 179.926192 23.4310876 180.159842 23.4663501 180.392859 23.5016126 180.585369 23.5368752 180.737479 23.5720315 180.889061 23.607294 181.01153 23.6601878 181.105095 23.730819 181.198133 23.8013441 181.245179 23.9307108 181.245179 24.1184944 181.245179 24.2595445 181.180622 24.3828571 181.052669 24.4886447 180.924082 24.5944323 180.731466 24.6472198 180.474926 24.6472198 180.007732 24.6472198 179.501192 24.6060094 178.9552 24.5239072 178.408681 24.4419112 177.836002 24.4004884 177.236424 24.4004884 176.682838 24.4004884 176.167964 24.4357509 175.692015 24.506276 175.216171 24.576801 174.791065 24.6120635 174.417964 24.6120635 173.997922 24.6120635 173.787901 24.42428 173.787901 24.0480756 173.787901 23.8838711 173.822816 23.7720295 173.892859 23.7130816 173.962901 23.6547709 174.055939 23.607294 174.172922 23.5720315 174.289378 23.5368752 174.429568 23.5076667 174.59307 23.4839814 174.756044 23.4608271 174.931044 23.4019854 175.118281 23.3076687 175.444863 23.1435705 175.637373 22.9728872 175.695812 22.7965745 175.753829 22.6202619 175.78347 22.3680074 175.78347 22.0386427L175.78347 13.0140916C175.78347 12.5910475 175.707416 12.3090535 175.555833 12.1680034 175.403829 12.0270595 175.240749 11.9333802 175.065749 11.8860094 174.890643 11.8391697 174.727141 11.7978531 174.575559 11.7625906 174.423449 11.7273281 174.347922 11.6040154 174.347922 11.3924403 174.347922 11.1341317 174.499504 10.940294 174.803196 10.810821 175.106255 10.6819854 175.502247 10.452779 175.990749 10.1234142 176.659209 9.65353046 177.149399 9.22443226 177.461213 8.8366507 177.7725 8.44897535 178.031783 8.25503146 178.239694 8.25503146 178.469968 8.25503146 178.585369 8.50176293 178.585369 8.99533206L178.585369 10.3701457z"/>
      <g transform="translate(185.021)">
        <mask id="annie-b" fill="#fff">
          <use xlink:href="#annie-a"/>
        </mask>
        <path fill="#D4D4D4" d="M10.1759283,12.4401409 C10.1409072,11.7923513 10.0358439,11.2387721 9.8607384,10.7794034 C9.68584388,10.3200347 9.42308017,9.96634729 9.07308017,9.71908477 C8.7228692,9.47182224 8.23267932,9.34787234 7.60251055,9.34787234 C6.99533755,9.34787234 6.42962025,9.52460982 5.90451477,9.87829719 C5.3793038,10.2318784 4.91221519,10.7325637 4.50398734,11.3803533 C4.09533755,12.0281429 3.77424051,12.8234615 3.54132911,13.7654595 C3.30767932,14.7077762 3.19111814,15.7559866 3.19111814,16.9105156 C3.19111814,19.0075737 3.6342616,20.6389966 4.52149789,21.8049966 C5.40841772,22.9717401 6.62223629,23.5545277 8.1628481,23.5545277 C8.65293249,23.5545277 9.03805907,23.4900567 9.31801688,23.3600527 C9.59818565,23.2305798 9.80820675,23.0361048 9.94829114,22.7772651 C10.0883755,22.5184255 10.1699156,22.2121088 10.1934388,21.8585277 C10.2163291,21.5048403 10.2284599,21.0928423 10.2284599,20.6213653 L10.2284599,14.6488283 C10.2284599,13.8243012 10.2109494,13.0879305 10.1759283,12.4401409 Z M13.1342616,21.3336259 C13.1342616,22.2738182 13.2974473,22.743702 13.624346,22.743702 C13.8573629,22.743702 14.0622152,22.6323914 14.2371097,22.4088142 C14.4122152,22.1856619 14.5576793,22.0739265 14.6746624,22.0739265 C14.7212869,22.0739265 14.7798312,22.1268202 14.8498734,22.2325016 C14.9199156,22.3382892 14.9549367,22.4853934 14.9549367,22.673177 C14.9549367,23.0730667 14.8728692,23.3253212 14.7096835,23.4311088 C14.5461814,23.5368964 14.3361603,23.6370547 14.0795148,23.7307341 C13.2185443,24.0364134 12.5402743,24.3420928 12.0445992,24.6472411 C11.5485021,24.9523894 11.2081013,25.1056539 11.0237131,25.1056539 C10.9083122,25.1056539 10.8105274,25.0290747 10.7301477,24.8764475 C10.649135,24.7232892 10.5857384,24.5470828 10.5395359,24.347722 C10.4936498,24.1482551 10.4472363,23.9720487 10.4013502,23.8188904 C10.3553586,23.6663693 10.2972363,23.589684 10.2284599,23.589684 C10.181308,23.589684 10.0648523,23.6723172 9.87824895,23.8364154 C9.69111814,24.0011509 9.44059072,24.1835176 9.12561181,24.3828784 C8.81042194,24.5823453 8.43088608,24.764712 7.98763713,24.9292351 C7.54407173,25.0934395 7.03035865,25.176179 6.4471308,25.176179 C5.55989451,25.176179 4.73172996,24.9821289 3.96137131,24.5944535 C3.19111814,24.2066719 2.50841772,23.660209 1.91327004,22.9551709 C1.31801688,22.2501329 0.85092827,21.3985216 0.512848101,20.3993814 C0.174240506,19.4007721 0.00514767932,18.2787441 0.00514767932,17.0328723 C0.00514767932,15.7637401 0.197658228,14.5949786 0.582890295,13.525207 C0.968016878,12.4560727 1.48109705,11.5395657 2.12329114,10.7755798 C2.76495781,10.0121248 3.51780591,9.41839739 4.38151899,8.99535331 C5.24481013,8.57230922 6.16706751,8.36073407 7.14744726,8.36073407 C7.61400844,8.36073407 8.05778481,8.4020507 8.477827,8.48415291 C8.89797468,8.56678617 9.23605485,8.65494248 9.49312236,8.74851563 L9.94829114,8.92482826 L10.0183333,8.92482826 C10.1584177,8.92482826 10.2284599,8.74851563 10.2284599,8.39599659 L10.2284599,3.74272405 C10.2284599,3.43757575 10.1462869,3.21389238 9.98331224,3.0729485 C9.81970464,2.9318984 9.64481013,2.82069399 9.45810127,2.73806072 C9.27107595,2.65595852 9.09597046,2.57937936 8.93299578,2.50896052 C8.76938819,2.43843547 8.68805907,2.3326479 8.68805907,2.1915978 C8.68805907,1.93328918 8.84544304,1.76313687 9.16063291,1.68050361 C9.47561181,1.5984014 9.85409283,1.47498257 10.2972363,1.31024709 C11.1047257,1.0050988 11.6982911,0.717050701 12.0789873,0.446633868 C12.4596835,0.176748096 12.7075738,0.0412210421 12.8229747,0.0412210421 C13.0073629,0.0412210421 13.1227637,0.100168938 13.1692827,0.217533667 C13.2158017,0.335323246 13.2393249,0.499527655 13.2393249,0.710996593 C13.2393249,1.04036132 13.2218143,1.40456373 13.1867932,1.80381623 C13.1517722,2.20381222 13.1342616,2.63832725 13.1342616,3.10821102 L13.1342616,21.3336259 Z" mask="url(#annie-b)"/>
      </g>
    </g>
    <g transform="translate(72.363 .08)">
      <mask id="annie-d" fill="#fff">
        <use xlink:href="#annie-c"/>
      </mask>
      <path fill="#D4D4D4" d="M33.1889135,45.3544261 C32.8883861,45.5806585 32.5849051,45.8031735 32.2767827,46.0185723 C32.1812131,46.08538 32.0665506,46.1243599 31.9606435,46.1759792 C31.9258333,46.1929731 31.8869093,46.2043379 31.8567405,46.2272798 C31.5865928,46.4324822 31.285538,46.5771435 30.9785759,46.7191495 C30.5003059,46.94039 30.0380696,47.1964681 29.567289,47.4344902 C29.3908122,47.5238148 29.2125422,47.6105904 29.0302637,47.6869571 C28.5569515,47.8852557 28.0847996,48.0876966 27.6047363,48.2682577 C27.2169726,48.4139812 26.8184494,48.5307086 26.4243565,48.658907 C26.0676055,48.7749972 25.7114873,48.8929992 25.352943,49.0029291 C25.0639135,49.0916164 24.771403,49.1692577 24.4805802,49.2519972 C24.3157068,49.2990493 24.1500949,49.3437647 23.9863819,49.3945343 C23.5256224,49.53739 23.0643354,49.6787587 22.6056857,49.8285182 C22.2789979,49.9351555 21.9525211,50.0444481 21.6335338,50.1716906 C21.457057,50.2421094 21.2980907,50.3559691 21.1275211,50.4427447 C20.8928165,50.5622337 20.6515717,50.6689772 20.4184494,50.7914401 C20.0894409,50.9641415 19.7825844,51.168919 19.5044198,51.4201114 C19.2832173,51.619897 19.0430274,51.7985463 18.8089557,51.9834621 C18.663808,52.0981715 18.51423,52.2072517 18.3492511,52.3318389 C18.1586392,52.1708208 17.9644409,52.0121395 17.7762553,51.8467667 C17.3147574,51.4414601 16.8060021,51.1092277 16.2562131,50.8397667 C15.9234072,50.6765182 15.5928165,50.5085964 15.2567405,50.3527828 C15.1022046,50.2810894 14.9381751,50.2285142 14.7758333,50.1755142 C14.0907068,49.9516184 13.4074789,49.7213499 12.717711,49.5130673 C12.3649684,49.4065363 12.0046308,49.3219912 11.6339557,49.2889591 C11.4842722,49.2756826 11.3377532,49.2224701 11.1908122,49.1835964 C10.564019,49.0176926 9.93522152,48.8586926 9.31212025,48.6795122 C9.0653903,48.6085623 8.82477848,48.5057487 8.59355485,48.3922076 C8.16159283,48.1801014 7.72794304,47.9674641 7.31433544,47.721901 C6.81380802,47.4247186 6.3267827,47.102895 5.84650844,46.7732116 C5.55220464,46.5711956 5.27266878,46.3447507 5.00209916,46.1109772 C4.58089662,45.7467747 4.16950422,45.370889 3.76117089,44.9921355 C3.56264768,44.8078569 3.38005274,44.6063719 3.19155063,44.4112597 C3.15969409,44.3783339 3.12836498,44.3414782 3.10853376,44.3005864 C3.06222574,44.2053138 3.08437764,44.1392497 3.17593882,44.0854 C3.22150844,44.0585283 3.26918776,44.0343118 3.31802743,44.0143439 C3.52309072,43.9302236 3.54439873,43.9493419 3.67572785,44.1236365 C3.80304852,44.2925142 3.95199367,44.4455663 4.09861814,44.5987246 C4.56285865,45.083903 5.06665612,45.5260653 5.58195148,45.9550573 C5.80114979,46.1375303 6.01275316,46.3331735 6.24935654,46.4897307 C6.74577004,46.8182457 7.22847046,47.1704461 7.76802743,47.429392 C8.12066456,47.5986946 8.46306962,47.7900894 8.81971519,47.9495142 C9.08427215,48.0678349 9.36349156,48.1532297 9.63775316,48.2485022 C9.78701477,48.3003339 9.94155063,48.3367647 10.0903903,48.3895523 C10.620981,48.5779731 11.1750949,48.677919 11.7145464,48.832883 C12.1841667,48.967879 12.663808,49.0672938 13.1169726,49.2596445 C13.2807911,49.3291074 13.4587447,49.3639451 13.6270992,49.4235303 C13.9134916,49.5248569 14.1973523,49.6332998 14.4823734,49.7384501 C14.7303692,49.8301114 14.9814241,49.9141255 15.2261498,50.0139651 C15.7471414,50.2266024 16.2644409,50.447418 16.7387025,50.7580894 C16.8294198,50.8174621 16.9378586,50.8492196 17.0509388,50.8672758 C17.0227743,50.8415723 16.9975633,50.811408 16.9660232,50.7906966 C16.5727743,50.532388 16.1775211,50.2835323 15.731635,50.1156104 C15.3119093,49.9574601 14.9125422,49.7449291 14.5010443,49.5637307 C14.1567405,49.4120593 13.8057911,49.2756826 13.4612764,49.1243299 C12.9643354,48.9060633 12.4679219,48.686416 11.9762553,48.4563599 C11.5093776,48.2377747 11.0430274,48.0164281 10.5876477,47.7750072 C10.2729852,47.6081475 9.98152954,47.397422 9.67214135,47.2196224 C9.44450422,47.0886625 9.224673,46.9468689 9.01085443,46.7965784 C8.79703586,46.6462878 8.58912447,46.4875002 8.38511603,46.3221275 C7.61159283,45.6722136 6.86591772,45.0883639 6.13205696,44.4008509 C5.93986287,44.1732377 5.71623418,43.9726024 5.51876582,43.7490253 C5.39756329,43.611905 5.29418776,43.4574721 5.20505274,43.2601295 C5.50294304,43.1722918 5.77878692,43.0878529 6.06117089,43.0094681 C8.03058017,42.5370353 10.0151793,42.228913 12.0332173,42.1182397 C12.285538,42.1044321 12.5378586,42.0937046 12.789019,42.0865884 C15.0680274,42.0018309 17.3877532,42.0852076 19.7074789,42.1686906 C18.3819515,42.7525403 16.5593776,43.0027768 15.8965084,44.504408 C16.6421835,44.2541715 17.3049473,43.6702156 18.1334283,43.5867327 C17.7191878,44.3375483 16.8907068,45.0883639 17.2221414,46.0059331 C17.8020992,44.7547507 18.8791034,43.6702156 20.2978797,43.4638449 C20.5798418,43.4101014 20.8662342,43.384398 21.1553692,43.3736705 C21.9443987,43.3364962 22.6901793,43.5867327 23.5185549,43.7536986 C22.938597,43.1697427 21.5302637,43.1697427 21.6130696,42.1686906 C24.1813186,42.5023038 26.8324789,42.8360232 29.3467194,43.5678269 C29.556846,43.6275182 29.7656013,43.6897587 29.9738291,43.7532737 C30.1819515,43.8166826 30.3897574,43.8815784 30.5974578,43.9466866 C30.9493565,44.0570413 31.2975633,44.1789731 31.6497785,44.2879471 C31.9702426,44.3871495 32.2952426,44.4710573 32.6154958,44.5703659 C32.8668671,44.6484321 33.1145464,44.7389251 33.3632806,44.8252758 C33.4379641,44.8511916 33.5112764,44.8815683 33.6045253,44.9173619 C33.4802637,45.0777427 33.3506224,45.2327066 33.1889135,45.3544261 Z M18.6304747,29.9893118 C18.0505169,30.1561715 17.8020992,30.8235042 17.8849051,31.4074601 C17.6363819,31.3239772 17.4706646,31.0738469 17.4706646,30.9069872 C17.4706646,29.8225583 16.6421835,28.904883 15.7084283,28.4031355 C15.5083228,28.2941615 15.303365,28.1964461 15.09577,28.1052096 C14.8880696,28.0138669 14.6778376,27.9290032 14.4668671,27.845414 C14.2339557,27.7532216 13.992289,27.6831214 13.7606435,27.5882737 C13.599462,27.5221034 13.4374367,27.4579511 13.278154,27.3875323 C13.1188713,27.3171134 12.9621203,27.2403218 12.8116983,27.1495102 C11.0913397,26.3188228 9.84851266,24.9006745 8.68870253,23.3991495 C8.68870253,23.649386 8.60579114,23.8162457 8.52298523,23.9831054 C7.77731013,22.9820533 7.28026371,21.8141415 7.14798523,20.5278028 C7.11918776,19.9792156 7.17562236,19.4169271 7.30410338,18.879386 C7.4324789,18.3419511 7.63290084,17.8293699 7.89207806,17.3801976 C8.06739451,17.1530092 8.2446097,16.9321936 8.44123418,16.7234862 C9.43479958,15.9319912 10.5530485,15.3485663 11.7017827,14.8133619 C11.9314241,14.7062998 12.1624367,14.6012557 12.3934494,14.4962116 C12.896403,14.2610573 13.4082173,14.02739 13.9163397,13.7812958 C14.424462,13.5352016 14.9288924,13.2767868 15.4169726,12.9923499 C17.6363819,11.8872096 19.624673,9.80172866 19.5513608,7.16479279 C19.5756224,6.68099519 19.4908122,6.1732998 19.3119093,5.69491904 C18.9544198,4.73794509 18.221192,3.89801723 17.2370148,3.60253427 C17.1946097,3.58384088 17.1417616,3.5779992 17.1094831,3.54868457 C16.8831118,3.34252625 16.6076899,3.41060842 16.3506224,3.42282285 C16.2443987,3.42792104 16.139019,3.52043206 16.0391245,3.58299118 C15.6280485,3.84023768 15.1997785,4.03099519 14.6984072,4.00274269 C14.3513608,3.98330581 14.0161287,3.91607335 13.6916561,3.79499118 C13.5125422,3.72818357 13.3379641,3.64905531 13.1505169,3.57088297 C13.2063186,3.40869659 13.2406013,3.24109339 13.3200316,3.09919359 C13.3891245,2.97566854 13.5062131,2.87795311 13.6081118,2.77482084 C13.6600105,2.7223519 13.7274156,2.68432786 13.6802637,2.58363848 C13.5086392,2.58257635 13.3539979,2.64810942 13.2004114,2.72256433 C13.0517827,2.79468257 12.9022046,2.87009339 12.7180274,2.83036994 C12.9259388,2.36993908 13.167711,1.94062846 13.5606435,1.60701523 C13.9936603,1.91428778 14.4821624,1.94105331 14.985327,1.89591303 C15.2418671,1.87297114 15.499462,1.85958838 15.7555802,1.83282285 C16.1395464,1.79278076 16.4803692,1.6374982 16.7951371,1.41848818 C16.8110654,1.40733587 16.8311076,1.40213146 16.8615928,1.3887487 C16.8868038,1.42263046 16.9157068,1.4562998 16.9391245,1.49347415 C17.1260443,1.79108136 17.3912342,2.01444609 17.6431329,2.25193707 C18.8186603,3.0967507 19.9513608,4.15260842 20.4519937,5.52041202 C20.6188713,5.97638196 20.7154958,6.46708337 20.7200316,6.99612745 C21.0332173,9.88510541 18.8791034,12.2208228 16.7222468,13.7650453 C16.2981962,14.0592537 15.8538924,14.3306265 15.3941878,14.57842 C14.4747785,15.0737948 13.4938713,15.4742156 12.499673,15.8079351 C12.2236181,15.9052257 11.9681329,16.0420273 11.7379641,16.2096305 C10.5872257,17.0476465 10.0695042,18.6581455 10.7599051,19.978897 C11.3398629,20.9799491 12.8311076,20.9799491 13.328154,20.06238 C13.5767827,19.6174561 13.8712975,19.2281876 14.2030485,18.8912818 C14.3689768,18.7228289 14.5441878,18.5674401 14.7268882,18.4241595 C16.185327,17.3758429 17.8899684,16.9893359 19.6321624,16.9354862 C19.8812131,16.9277327 20.1307911,16.926883 20.3807911,16.9317687 C22.0273101,17.1426004 23.6842722,17.6431796 24.8441878,18.8944681 C24.5956646,19.0613279 24.1813186,19.1447046 23.9329008,18.8944681 C24.0985127,19.1447046 24.1813186,19.478424 24.0157068,19.7286605 C23.6842722,20.06238 23.1872257,20.1457567 22.7729852,20.06238 C23.3942932,20.2708749 23.9950316,20.1457567 24.6060021,19.9998208 C24.8095886,19.9511756 25.0145464,19.9001936 25.2216139,19.8584521 C26.9153903,19.478424 28.5723523,20.4794762 29.5665506,21.7307647 C28.9865928,21.563905 28.406635,21.2302918 27.8267827,21.2302918 C27.9095886,21.563905 28.2410232,21.6472818 28.4895464,21.8141415 C29.8565295,22.3147206 30.8042089,23.2844401 31.7526266,24.2552216 C31.9107489,24.4170894 32.0688713,24.5788509 32.2293143,24.738913 C32.8804747,25.317877 33.6261498,25.9852096 33.6261498,26.8192958 C33.6261498,27.0696385 33.5432384,27.5702176 33.3776266,27.6535944 C33.046192,27.9872076 32.5491456,27.4032517 32.1349051,27.3198749 C32.5491456,27.6535944 32.4662342,28.2375503 32.7148629,28.6546465 C32.5491456,28.7380232 32.3005169,28.7380232 32.1349051,28.7380232 C32.217711,28.9882597 32.4662342,29.2386024 32.3005169,29.3219792 C32.0796308,29.4749251 31.8609599,29.5792257 31.6445042,29.6436966 C31.4278376,29.7080613 31.2131751,29.7325964 31.0003059,29.7260112 C30.5607489,29.6555924 30.1465084,29.5722156 29.7321624,29.4053559 C27.5782595,28.1541735 25.1755169,27.1530152 22.7050527,27.5421776 C22.2664451,27.9454661 22.0202426,28.419917 21.8987236,28.9364281 C21.5341667,30.4858549 22.2916561,32.4132918 22.339019,33.9292617 C22.353365,34.1050433 22.3583228,34.2809311 22.349462,34.4585182 C22.3401793,34.6353619 22.3169726,34.813905 22.2749895,34.9946786 C22.2203481,34.7860774 22.1653903,34.5751395 22.1074789,34.3637768 C22.0475633,34.1488028 21.9850105,33.9336164 21.9161287,33.7168369 C21.1988291,32.2416525 20.8673945,29.4888389 18.6304747,29.9893118 Z M11.4047363,32.1679411 C11.7002004,32.4899772 11.988808,32.8182798 12.3115928,33.1785523 C12.0920781,33.1675062 10.3495675,32.9121715 10.2451371,32.8986826 C10.2086392,32.8940092 10.1301582,32.8951776 10.1002004,32.8728729 C9.88870253,32.7148289 9.68174051,32.550412 9.46728903,32.3967226 C9.40505274,32.3521134 9.32372363,32.3336325 9.24988397,32.3068669 C9.18300633,32.2826505 9.11444093,32.3118589 9.10368143,32.3695323 C9.09397679,32.4213639 9.12119198,32.5018729 9.16074895,32.5370293 C9.26612869,32.6307086 9.38690928,32.7067567 9.48849156,32.8273078 C9.44577004,32.8315563 9.40294304,32.8407968 9.36043249,32.8390974 C8.63026371,32.8093579 7.90758439,32.871917 7.19344937,33.025394 C7.1089557,33.0435563 7.05357595,33.0087186 6.99017932,32.977917 C6.70030591,32.8256084 6.2860654,32.491889 6.1203481,32.7422317 C5.87182489,32.9089852 6.53458861,32.9923619 6.4517827,33.1593279 C6.36887131,33.3260814 5.9546308,33.3260814 5.68152954,33.4381355 C5.4653903,33.5111034 5.24935654,33.5844962 5.03374473,33.6589511 C4.64587553,33.7926725 4.65157173,33.7886365 4.33543249,33.5191756 C4.13933544,33.351891 1.81665612,31.7623158 1.6646519,31.6700172 C1.51581224,31.5796305 1.37066456,31.4788349 1.21212025,31.4057607 C1.10062236,31.3543539 0.991867089,31.3189852 0.896402954,31.2435743 C0.882162447,31.2422998 0.867816456,31.2383699 0.853892405,31.2277487 C0.859588608,31.2311475 0.858322785,31.2308289 0.850305907,31.2266866 C0.760432489,31.1851575 0.782056962,31.1391675 0.898407173,31.0701295 C1.03268987,31.0036405 1.15304852,30.9418248 1.27583333,30.8884 C3.63490506,29.4888389 6.4517827,29.5722156 8.82583333,30.6522898 C9.0489346,30.7672116 9.2610654,30.901889 9.46866034,31.0434701 C9.67636076,31.1851575 9.87952532,31.3337487 10.0859599,31.476923 C10.2321624,31.5783559 10.3591667,31.7077226 10.4960865,31.8230693 C10.5346941,31.8555703 10.5769937,31.8837166 10.617289,31.9135623 C10.7307911,31.7462778 10.7273101,31.6685303 10.6089557,31.5596625 C10.556635,31.5116545 10.5019937,31.4660894 10.4184494,31.3932277 C10.835116,31.5834541 11.1282595,31.8662978 11.4047363,32.1679411 Z M12.4414451,33.5006946 C12.4329008,33.5648469 12.4067405,33.6306986 12.4067405,33.6306986 C12.4067405,33.6306986 10.8644409,33.3981996 10.0863819,33.319921 C9.95347046,33.3065383 9.97804852,33.2401555 9.98933544,33.1783399 C9.97994726,33.1286325 10.0128586,33.0706405 10.074884,33.0768008 C10.0911287,33.0720212 10.1093776,33.0705343 10.1295253,33.0735082 C10.3333228,33.1034601 10.5374367,33.1289511 10.7415506,33.1528489 C10.8535759,33.1625142 10.9659177,33.1724982 11.078365,33.1860934 C11.0882806,33.1872617 11.0960865,33.1908729 11.1035759,33.1945904 C11.5535759,33.2457848 12.4499895,33.3842858 12.4499895,33.3842858 C12.4499895,33.3842858 12.449462,33.4406846 12.4414451,33.5006946 Z M12.3273101,34.4330273 C12.3273101,34.4330273 12.2356435,34.4348329 12.1761498,34.4298409 C11.4505169,34.3715303 10.7524156,34.1973419 10.0159177,34.1901194 C9.96918776,34.1896946 9.92361814,34.1942617 9.87446203,34.1942617 C9.85990506,34.1929872 9.8839557,34.1343579 9.86939873,34.1331896 L9.86939873,34.0025483 C9.87773207,34.0008489 9.86739451,33.945406 9.87699367,33.943919 C9.9339557,33.943919 9.94524262,33.9400954 9.99555907,33.9406265 C10.7737236,33.9482737 11.5168671,34.11439 12.2843776,34.1891635 C12.3077954,34.191394 12.3368038,34.2109371 12.3368038,34.2109371 L12.3273101,34.4330273 Z M9.42509494,33.3069631 C9.01971519,33.2905002 8.6574789,33.2824281 8.24661392,33.3382958 C7.98015823,33.3745142 7.6889135,33.3851355 7.41549578,33.442915 C7.3146519,33.4642637 7.27140295,33.3678228 7.29482068,33.2879511 C7.29292194,33.235376 7.32372363,33.2130713 7.37235232,33.2006445 C7.3796308,33.1977768 7.38701477,33.1952277 7.39513713,33.193422 C7.449673,33.1819511 7.50452532,33.172923 7.55948312,33.1646385 C7.80811181,33.1186485 8.31866034,33.0601255 8.32330169,33.0595944 C8.75399789,33.01541 9.0153903,33.0383519 9.37077004,33.0556645 C9.3824789,33.0557707 9.39418776,33.0557707 9.40600211,33.0557707 C9.43690928,33.0559832 9.46781646,33.0664982 9.49861814,33.0720212 C9.50030591,33.083917 9.50093882,33.0949631 9.50114979,33.1056906 C9.56117089,33.1795082 9.54218354,33.3117427 9.42509494,33.3069631 Z M9.45315401,34.1142838 C9.45167722,34.1222497 9.45051688,34.1303218 9.44735232,34.1379691 C9.4403903,34.1896946 9.48216245,34.2333479 9.33922996,34.2436505 C9.33237342,34.2441816 9.32562236,34.2449251 9.31876582,34.2456685 C9.3010443,34.2474741 8.62920886,34.2573519 8.3517827,34.288897 C8.24439873,34.3012176 8.13722574,34.3139631 8.03026371,34.3273459 C8.00515823,34.3323379 7.1260443,34.4731756 7.10452532,34.482416 C7.09777426,34.4382317 7.09650844,34.4062617 7.10030591,34.3821515 C7.06908228,34.3200172 7.08184599,34.2404641 7.16739451,34.2212397 C7.45768987,34.1557066 7.7525211,34.1000513 8.04872363,34.0696745 C8.25779536,34.0482196 8.46581224,34.0200733 8.67562236,34.0073279 C8.86306962,33.9959631 9.10695148,33.9974501 9.29355485,33.9700473 C9.40062236,33.9544341 9.45631857,33.9374401 9.44376582,34.0354741 C9.45199367,34.0369611 9.46159283,34.0935723 9.45315401,34.1142838 Z M6.68669831,33.6317607 C6.31697257,33.73638 5.04155063,34.2271876 4.72351266,34.2881535 C4.48775316,34.3331876 4.57646624,34.1784361 4.56728903,34.1766305 C4.5710865,34.1512457 4.57530591,34.127879 4.58100211,34.1065303 C4.58638186,34.0522557 4.62087553,33.9992557 4.68796414,33.9869351 C4.6932384,33.9859792 5.20652954,33.7724922 5.47456751,33.7136505 C5.48163502,33.71142 5.48870253,33.7086585 5.49598101,33.7063218 C5.51085443,33.7017547 5.52583333,33.6974 5.54070675,33.6927267 C5.56349156,33.6841234 5.58595992,33.6753078 5.60916667,33.6670232 C5.7739346,33.6077567 5.93975738,33.5634661 6.10600211,33.5222557 C6.23100211,33.4852938 6.35600211,33.4485443 6.48110759,33.4122196 C6.51486287,33.4023419 6.55051688,33.3965002 6.59197257,33.3903399 C6.60083333,33.3856665 6.61001055,33.3818429 6.61887131,33.3769571 C6.6460865,33.3621936 6.67287975,33.364424 6.69577004,33.3748329 C6.699673,33.3740894 6.70294304,33.3736645 6.70705696,33.3730273 C6.70568565,33.3752577 6.70505274,33.3768509 6.70378692,33.3789752 C6.73406118,33.396394 6.75420886,33.4298509 6.75136076,33.4609711 C6.78458861,33.5231054 6.77287975,33.6073319 6.68669831,33.6317607 Z M6.46001055,34.6341936 C6.3589557,34.6603218 6.2574789,34.6851756 6.15621308,34.7104541 C6.02129747,34.7671715 5.88100211,34.8199591 5.73954641,34.864887 C5.67119198,34.8902717 5.60231013,34.9137447 5.53110759,34.9306325 C5.42541139,34.9560172 4.89524262,35.1075824 4.73638186,35.1604762 C4.66992616,35.1825683 4.57214135,35.2426846 4.48754219,35.2676445 L4.5175,34.9831014 C4.51834388,34.9829952 4.51908228,34.982889 4.52003165,34.9827828 C4.52277426,34.9259591 4.48511603,34.8802878 4.6275211,34.8557527 C4.74471519,34.8356786 6.03595992,34.4885764 6.09861814,34.4638289 C6.1146519,34.4569251 6.16707806,34.4364261 6.17657173,34.4346204 C6.25642405,34.4062617 6.33828059,34.3822577 6.42551688,34.3683439 C6.51644515,34.3540052 6.56127637,34.4302657 6.55336498,34.5025964 C6.58733122,34.5916024 6.52952532,34.6161375 6.46001055,34.6341936 Z M4.349673,34.3565543 C4.2618038,34.2603259 3.90125527,33.9495483 3.80937764,33.8505583 C3.2803692,33.279879 1.14671941,32.1509471 0.701149789,31.6805323 C0.672246835,31.6500493 0.681529536,31.5183459 0.684799578,31.4428289 C0.688386076,31.3600894 0.971191983,31.5976866 1.03121308,31.648881 C1.37235232,31.8435683 3.1675,32.9029311 3.97857595,33.6658549 C3.99355485,33.6782818 4.00863924,33.6907086 4.02287975,33.7040914 C4.12741561,33.8017006 4.2432384,33.8852898 4.35051688,33.9795002 C4.38743671,33.9903339 4.40779536,34.0240032 4.41117089,34.057885 C4.41306962,34.0604341 4.41517932,34.0625583 4.4167616,34.0654261 C4.41982068,34.0715864 4.349673,34.3565543 4.349673,34.3565543 Z M4.24081224,35.2749731 C3.96813291,35.0193198 3.5639135,34.5819371 3.27720464,34.3420032 C3.01349156,34.1215062 2.76570675,33.9458309 2.50568565,33.7212978 C2.22562236,33.4794521 1.91971519,33.2307026 1.61064346,33.0246505 C1.28986287,32.8109511 0.954525316,32.6228489 0.639651899,32.4000152 C0.535010549,32.3260914 0.597352321,32.2930593 0.611592827,32.0934862 C0.644820675,32.0990092 0.74914557,32.1652858 0.798090717,32.2071335 C0.848196203,32.2500433 0.906951477,32.2812697 0.961803797,32.3177006 C1.53216245,32.6193439 2.09777426,33.0208269 2.60146624,33.4044661 C2.90114979,33.6327166 3.22804852,33.816889 3.50853376,34.0709491 C3.72952532,34.249917 3.89724684,34.5074822 4.10568565,34.7015323 C4.16401899,34.7486906 4.22245781,34.795424 4.28216245,34.8405643 C4.32298523,34.8713659 4.24081224,35.2749731 4.24081224,35.2749731 Z M34.1047363,44.5431756 C33.9384916,44.451408 33.7596941,44.3804581 33.5814241,44.314394 C33.3404958,44.2251756 33.0958755,44.1457287 32.8506224,44.0693619 C32.649462,44.0068028 32.4437658,43.9592196 32.2423945,43.8972978 C31.9780485,43.8158329 31.7168671,43.7237467 31.4527321,43.6415383 C31.1978797,43.5621976 30.9431329,43.4824321 30.6880696,43.4038349 C30.4330063,43.3251315 30.1775211,43.2475964 29.9212975,43.1729291 C27.2468249,42.3354441 24.5956646,42.0018309 21.8615928,41.6681114 C22.1930274,41.0007788 22.6901793,40.3334461 22.8557911,39.5826305 C22.8834283,39.3045663 22.9041034,39.0265022 22.9208755,38.7488629 C23.0046308,37.3607727 22.9893354,35.9838349 23.2425,34.6740232 C23.2442932,34.4991976 23.2285759,34.3272397 23.1872257,34.1602737 C23.1354325,33.9205523 23.0811076,33.6832737 23.0260443,33.4480132 C22.9695042,33.2099912 22.9125422,32.9740934 22.8565295,32.7375583 C22.7178165,31.4900934 22.0043143,29.833923 22.528154,28.6463619 C22.6329008,28.4088709 22.7872257,28.1900733 23.006846,27.9976164 C25.8382806,27.8204541 28.2410232,29.1551194 30.6434494,30.406408 C30.9749895,30.6566445 31.3063186,30.406408 31.3063186,30.0726886 C31.8862764,30.406408 32.6319515,30.0726886 33.1291034,29.6555924 C33.2947152,29.4053559 32.7976688,29.4053559 32.8804747,29.1551194 C33.046192,29.3219792 33.2119093,29.4053559 33.4604325,29.4053559 C33.3776266,28.9882597 33.2947152,28.5711635 33.046192,28.1541735 C33.5432384,28.3209271 33.874673,28.7380232 34.3718249,28.8215062 C34.2061076,28.3209271 34.2061076,27.8204541 33.9575844,27.3198749 C34.0403903,27.4032517 34.2061076,27.4032517 34.289019,27.4867347 C34.4546308,26.2354461 33.5432384,25.317877 32.8006224,24.5057768 C32.6067405,24.3073719 32.4107489,24.1142778 32.2113819,23.9275563 C31.2143354,22.9936305 30.1326899,22.2174301 28.820981,21.7307647 C29.4837447,21.8976244 30.063597,22.2312377 30.7264662,22.3980974 C29.6493565,20.7297126 27.9095886,19.1447046 25.8740401,19.2770453 C25.6813186,19.2804441 25.4860654,19.2890473 25.2869093,19.296907 C25.2019937,19.3001996 25.1160232,19.3030673 25.0296308,19.3056164 C25.321403,19.2911715 25.6011498,19.240402 25.8382806,19.0613279 C24.5127532,17.4763198 22.4415506,16.6421275 20.4293143,16.4148329 C20.1319515,16.3911475 19.831635,16.3781896 19.5305802,16.3772337 C17.4224578,16.3709671 15.2730907,16.9547106 13.8088502,18.558412 C13.6053692,18.7636144 13.4092722,18.9796505 13.2191878,19.2035463 C13.0289979,19.4274421 12.8449262,19.6591976 12.6653903,19.8955202 C12.499673,20.2291335 11.9198207,20.3126164 11.5883861,20.06238 C10.5941878,19.2281876 10.9256224,17.6431796 11.8369093,16.8923639 C12.0233017,16.7464281 12.2162342,16.6199291 12.413808,16.5081936 C12.6113819,16.3963519 12.8133861,16.2988489 13.0170781,16.209418 C14.0362764,15.8819651 15.0322679,15.4586024 15.9608544,14.9267968 C16.4252004,14.6609471 16.8726688,14.3680132 17.2997785,14.0537307 C19.5418671,12.4711655 21.281635,9.96848216 21.2528376,7.14705531 C21.2600105,6.51774669 21.1618038,5.93102926 20.9798418,5.38520361 C20.4336392,3.74772665 19.1324789,2.47816954 17.6556857,1.52926774 C17.5495675,1.42337395 17.4592722,1.29113948 17.3955591,1.15486894 C17.295981,0.941806814 17.135116,0.781107415 16.9667616,0.638570341 C16.7046308,0.416692585 16.4128586,0.243035271 16.0700316,0.147868938 C15.7587447,0.061412024 15.4447152,0.0210513026 15.1306857,0.0262557114 C14.6548418,0.0341154309 14.2054747,0.176546293 13.8027321,0.437616433 C13.5810021,0.581321844 13.3774156,0.738091383 13.2786814,1.01466854 C13.221403,1.17515551 13.0801582,1.3093018 12.9628586,1.44312946 C12.7438713,1.69304729 12.5197152,1.93659238 12.3881751,2.25023768 C12.2911287,2.48156834 12.1391245,2.67285691 11.9418671,2.82867054 C11.467289,3.20349419 10.99577,3.58203527 10.5212975,3.95675271 C9.46813291,4.7885022 8.4139135,5.61887094 7.36043249,6.45008938 C7.33458861,6.47048216 7.29988397,6.4912998 7.29070675,6.51902124 C7.27361814,6.57138397 7.24872363,6.64084689 7.26929325,6.68152625 C7.30199367,6.74599719 7.36982068,6.78657034 7.45420886,6.74451022 C7.53131857,6.70606132 7.61138186,6.67387896 7.68880802,6.63585491 C8.19471519,6.38774269 8.69988397,6.13771864 9.20600211,5.89013747 C9.99207806,5.50554228 10.7787869,5.12232786 11.5651793,4.73868858 C11.9520992,4.54984289 12.3413397,4.36577675 12.7247785,4.17002725 C12.8819515,4.08962445 13.0239346,4.09695311 13.1749895,4.17480681 C13.7131751,4.45223367 14.2925,4.52424569 14.8875422,4.52105932 C15.342289,4.51861643 15.7643354,4.40316353 16.1525211,4.16503527 C16.2484072,4.10608737 16.338808,4.037899 16.4333228,3.97672064 C16.5285759,3.91511743 16.6229852,3.90067255 16.7313186,3.95972665 C16.9112764,4.05765451 17.0933439,4.15388297 17.2821624,4.23248016 C17.960116,4.55292305 18.4806857,5.14165852 18.7535759,5.83331383 C18.8900738,6.17914148 18.9646519,6.55067255 18.9661287,6.92719559 C19.0447152,8.88405331 17.8849051,10.635921 16.4037869,11.6882737 C15.9983017,11.9935283 15.5703481,12.2809391 15.1265717,12.5481695 C14.2389135,13.0826305 13.2856435,13.5272357 12.331846,13.9158669 C12.0999895,14.0154942 11.8680274,14.1155463 11.6364873,14.2179351 C10.710538,14.6272778 9.79123418,15.0733699 8.90547468,15.6735764 C8.6389135,15.8364 8.39682489,16.0268389 8.17309072,16.2371395 C7.94925105,16.4474401 7.74366034,16.67739 7.54935654,16.9206164 C6.66401899,18.0256505 6.48933544,19.5218649 6.67783755,20.9286485 C6.74070675,21.3975764 6.84186709,21.8540774 6.96686709,22.2778649 C7.44598101,23.3156665 7.86022152,24.4836846 8.85441983,24.9841575 C9.02003165,25.0675343 8.85441983,24.6504381 8.93722574,24.4836846 C9.76570675,25.6514902 10.7599051,26.735919 12.0517827,27.3566244 C12.2378586,27.4629431 12.424673,27.5632076 12.610538,27.6632597 C12.8826899,27.8095142 13.1608544,27.9475904 13.4462975,28.064424 C13.8552637,28.2316024 14.2774156,28.3660673 14.6861709,28.5335643 C14.9654958,28.6480613 15.2300527,28.7986705 15.5042089,28.9263379 C15.8965084,29.0716365 16.3935549,29.3219792 16.3935549,29.7390754 C16.3935549,29.9893118 15.9794198,29.9893118 15.6541034,30.0119351 C15.3762553,29.9674321 15.1003059,29.9215483 14.8245675,29.8747086 C14.5488291,29.8277627 14.2731962,29.7798609 13.9976688,29.7314281 C13.7000949,29.6791715 13.4046308,29.6142758 13.1069515,29.5620192 C12.6468249,29.4816164 12.1861709,29.4030192 11.7245675,29.3315383 C11.3797363,29.2780072 11.0336392,29.2325483 10.6871203,29.1911255 C10.3791034,29.1544822 10.0692932,29.1326024 9.76117089,29.0962778 C9.51887131,29.0676004 9.27731013,29.0338248 9.03701477,29.0022798 C6.20315401,28.4877868 3.46918776,28.904883 1.03374473,30.3927066 C0.816761603,30.4892537 0.603364979,30.5946164 0.391972574,30.7032717 C0.237964135,30.7822938 0.123829114,30.8937106 0.121297468,31.0879731 C0.115495781,31.5337467 0.108111814,31.9796265 0.0935548523,32.4252938 C0.089335443,32.5563599 0.135221519,32.6286906 0.251677215,32.6907186 C0.502626582,32.8242277 0.74693038,32.9714381 0.987542194,33.1232156 C1.30726793,33.3247006 1.61686709,33.5428609 1.93870253,33.7407347 C2.17783755,33.8878389 2.7824789,34.4242116 2.87899789,34.5053579 C3.31148734,34.8691355 3.74851266,35.2283459 4.06718354,35.7060894 C4.12330169,35.7901034 4.20547468,35.8404481 4.29988397,35.8390673 C4.40948312,35.8374741 4.52372363,35.8236665 4.62731013,35.7889351 C5.15136076,35.6136846 5.66011603,35.3897888 6.2153903,35.292392 C6.28216245,35.388408 6.37783755,35.4099691 6.49112869,35.4065703 C6.78300633,35.3978609 7.02699367,35.2886745 7.23142405,35.0799671 C7.27077004,35.0397126 7.32287975,35.0044501 7.37572785,34.9865002 C7.6953481,34.8776325 8.0339557,34.8699852 8.36222574,34.8053018 C8.40041139,34.7976545 8.44165612,34.8061515 8.48121308,34.8038148 C8.60652954,34.79638 8.7403903,34.8126305 8.85484177,34.772907 C9.02245781,34.7147026 9.13142405,34.7449731 9.25167722,34.8763579 C9.47256329,35.1177788 9.83363924,35.0575563 9.99482068,34.7685523 C10.0039979,34.7521956 10.013808,34.7360513 10.0212975,34.7231996 C10.2637025,34.678378 10.4981962,34.7004701 10.7324789,34.7417868 C10.7712975,34.7485844 10.8113819,34.7475222 10.8509388,34.7510273 C11.1263608,34.7751375 11.4026266,34.7926625 11.6769937,34.8254822 C11.9792089,34.8617006 12.2796308,34.9123639 12.5808966,34.9561234 C12.6787869,34.9702497 12.777943,34.9186305 12.8017827,34.8325984 C12.8510443,34.6542677 12.9025211,34.4759371 12.9381751,34.2947387 C12.9817405,34.0736044 13.0217194,33.8503459 13.0404958,33.6261315 C13.0518882,33.4900733 13.0634916,33.3215142 12.9967194,33.2197627 C12.9192932,33.1020794 12.8432384,32.9755804 12.7506224,32.8665002 C12.5406013,32.618919 12.3245675,32.3762236 12.1049473,32.1370333 C11.9123312,31.9272637 11.7119093,31.7248228 11.5144409,31.5195142 C11.3302637,31.327907 11.131846,31.156905 10.8974578,31.0261575 C10.7579008,30.9483038 10.635538,30.8394361 10.4719304,30.7199471 C10.7299473,30.7366224 10.9414451,30.7412958 11.1506224,30.7659371 C11.4897574,30.8059792 11.8263608,30.8886124 12.1658122,30.8994461 C12.6097996,30.9136786 13.0400738,31.0150052 13.4791034,31.0541976 C13.6623312,31.0706605 13.8453481,31.0928589 14.0269937,31.1213238 C14.3710865,31.175386 14.7168671,31.2237126 15.0571624,31.296893 C15.2532595,31.3390593 15.4477743,31.3888729 15.6425,31.4386866 C16.4763608,31.5743198 17.3049473,32.3250293 17.967711,31.991416 C18.5476688,31.8245563 18.4648629,30.3230313 19.2104325,30.5732677 C20.5912342,30.9207948 21.1090612,32.4849852 21.4735127,33.890919 C21.546403,34.1721695 21.6132806,34.4470473 21.6795253,34.7045062 C21.838808,36.7830834 22.1124367,39.0866184 20.9018882,40.8036485 C20.7284705,41.0489992 20.5245675,41.2824541 20.2844831,41.5019952 C17.6363819,41.8349711 15.0680274,41.4178749 12.3839557,41.6105443 C12.0990401,41.6255202 11.814019,41.6413459 11.5291034,41.6589772 C9.53448312,41.7821836 7.54524262,41.9901475 5.65062236,42.5468068 C5.44629747,42.6024621 5.2481962,42.6852016 5.04155063,42.7246064 C4.62878692,42.8030974 4.23353376,42.9235423 3.85758439,43.1146184 C3.45125527,43.3212016 3.00199367,43.4384601 2.62847046,43.7139752 C2.6074789,43.7292697 2.57889241,43.7336244 2.55652954,43.7475383 C2.42794304,43.826879 2.29186709,43.8969792 2.17404008,43.9902337 C1.98806962,44.1374441 1.97688819,44.2992056 2.12973629,44.4885824 C2.45136076,44.8869852 2.81053797,45.2481074 3.18437764,45.5979711 C3.71760549,46.097382 4.28859705,46.5468729 4.87889241,46.9733158 C5.12498945,47.1512216 5.37773207,47.3197808 5.62414557,47.4971555 C6.43079114,48.0780313 7.29123418,48.5638469 8.19408228,48.9741455 C8.410327,49.0724982 8.63058017,49.1637347 8.85452532,49.2422257 C9.04671941,49.3094581 9.24682489,49.3538549 9.44344937,49.4082357 C9.98870253,49.5592697 10.5339557,49.7101976 11.0792089,49.8612317 C11.1678165,49.8856605 11.2556857,49.9137006 11.3452426,49.9343058 C11.7491456,50.0273479 12.1549473,50.1129551 12.5574789,50.2117327 C12.9028376,50.2965964 13.245981,50.3914441 13.5877532,50.4903279 C13.8278376,50.5595784 14.0654958,50.6380693 14.3012553,50.7213399 C14.6487236,50.8441214 14.9934494,50.9746565 15.33923,51.1020052 C15.7785759,51.2639792 16.2325844,51.39239 16.6156013,51.6812878 C16.7206646,51.7606285 16.835538,51.8265864 16.9428165,51.9029531 C17.1149684,52.025416 17.3026266,52.1330092 17.4506224,52.2807507 C17.6439768,52.4735263 17.8590612,52.6343319 18.0772046,52.7921635 C18.2824789,52.9408609 18.4893354,52.9231234 18.6906013,52.7606184 C18.778365,52.6897747 18.8658122,52.6185062 18.9543143,52.548406 C19.2300527,52.3306705 19.507057,52.1143158 19.781846,51.8951996 C19.9114873,51.7919611 20.0269937,51.6667367 20.1669726,51.5815543 C20.596192,51.3205904 21.0383861,51.0829932 21.5003059,50.8831014 C21.6267827,50.828402 21.7341667,50.7272878 21.8619093,50.6781114 C22.189019,50.5520373 22.52077,50.4376465 22.8538924,50.3287788 C23.3125422,50.1788068 23.7737236,50.0368008 24.2346941,49.8939451 C24.4110654,49.8394581 24.5897574,49.7919812 24.7675,49.7415303 C25.0394409,49.6642076 25.3130696,49.5921956 25.5831118,49.5086064 C25.9347996,49.3997387 26.2837447,49.2816305 26.6337447,49.1674521 C27.0402848,49.0350052 27.449673,48.9106305 27.8523101,48.7673499 C28.1186603,48.672396 28.3754114,48.5504641 28.6362764,48.4402156 C28.9698207,48.2992717 29.3087447,48.1693739 29.635327,48.0133479 C30.0220359,47.8287507 30.3980907,47.6212116 30.7788924,47.4238689 C30.8433439,47.3905182 30.9067405,47.3545122 30.9736181,47.326897 C31.3641245,47.1654541 31.7508333,46.9974261 32.0879641,46.7338068 C32.1178165,46.7106525 32.1573734,46.7003499 32.1918671,46.6830373 C32.3032595,46.6269571 32.4226688,46.5825603 32.5242511,46.5120353 C32.8661287,46.2750754 33.2188713,46.0521355 33.527943,45.7701415 C33.6399684,45.6678589 33.7480907,45.5607968 33.8551582,45.4533098 C33.9114873,45.396911 33.9647574,45.3371134 34.01423,45.2746605 C34.0878586,45.1817246 34.1675,45.0911255 34.2259388,44.9886305 C34.3425,44.7840653 34.3121203,44.6576725 34.1047363,44.5431756 Z" mask="url(#annie-d)"/>
      <path fill="#D4D4D4" d="M22.9185232 26.7870709C25.605865 26.0266962 28.2409916 25.067598 30.809346 26.4022633 29.8979536 25.7349307 28.9037553 25.067598 27.9991139 24.3072232 27.787827 24.1431251 27.5768565 23.9783896 27.3662025 23.8132293 26.7340295 23.3178545 26.1032278 22.8186561 25.46673 22.3202012 25.4567089 22.3336902 25.4465823 22.3470729 25.4364557 22.3605619 25.8620886 22.7641691 26.3414135 23.2872653 26.4092405 23.9261331 26.4317089 24.1389828 26.4085021 24.3647904 26.3233755 24.6035559 26.0040717 25.7349307 22.5414135 26.675123 21.5874051 26.6980649 20.6184177 26.7214317 19.6246414 26.7359828 18.5918354 26.4223375 18.4208439 26.3702934 18.2506962 26.3164437 18.0809705 26.2614257 17.5716878 26.0963715 17.0656751 25.92059 16.5568143 25.753624 16.4877215 25.7308946 16.412616 25.7267523 16.3403586 25.7139006 16.334557 25.7279206 16.3287553 25.7420469 16.3230591 25.7559607 16.3715823 25.796109 16.4150422 25.8460289 16.4694726 25.8747062 16.6974262 25.99462 16.923692 26.1199507 17.1600844 26.2209587 17.4032278 26.3248345 17.6548101 26.4107603 17.9070253 26.4903134 19.2105063 26.9862192 21.6445781 27.1475559 22.9185232 26.7870709M14.4492089 2.05949078C14.3114451 2.16166713 14.1744198 2.26554289 14.0441456 2.37717214 14.005538 2.41031042 13.991192 2.47191363 13.9687236 2.51461102 13.9984705 2.54127034 14.0098629 2.5589016 14.0177743 2.55741463 14.1597574 2.53054289 14.2614451 2.57568317 14.358597 2.69092365 14.4499473 2.79926032 14.5910865 2.81179339 14.7260021 2.75985551 14.8596519 2.70823627 14.9422468 2.60956493 14.9638713 2.46511603 14.9725211 2.40733647 14.9736814 2.34838858 14.9786392 2.2844487 15.0646097 2.27871323 15.1417194 2.27361503 15.2189346 2.26841062 15.2200949 2.25810802 15.2211498 2.24780541 15.2223101 2.23750281 15.0781118 2.17409399 14.9354958 2.10686152 14.7893987 2.04865711 14.6767405 2.00372926 14.5577532 1.97887555 14.4492089 2.05949078M19.9862553 5.51087415C19.9862553 5.51087415 19.9830907 5.49844729 19.9761287 5.47508056 19.9877321 5.49568577 19.9987025 5.51682204 20.0105169 5.5370024L20.0138924 5.53370982C20.0011287 5.51236112 19.9874156 5.49090621 19.9745464 5.4694513 19.9331962 5.33073788 19.7733861 4.85087014 19.3956435 4.26436513 19.3202215 4.13319279 19.2355169 4.00892425 19.1372046 3.89580802 19.1196941 3.87265371 19.1032384 3.84981804 19.084884 3.82655752 18.3855169 2.93352345 16.9577743 2.70113066 16.9577743 2.70113066 16.9577743 2.70113066 17.9672679 3.30377996 18.6306646 3.76113066 18.8913186 3.9409483 19.1562975 4.2496016 19.3820359 4.55804248 19.5295042 4.77588417 19.6746519 4.99287615 19.8124156 5.2086998 19.9212764 5.38957956 19.9862553 5.51087415 19.9862553 5.51087415"/>
    </g>
  </g>
</svg>
